<?xml version="1.0" standalone="no"?><!DOCTYPE svg PUBLIC "-//W3C//DTD SVG 20010904//EN"
 "http://www.w3.org/TR/2001/REC-SVG-20010904/DTD/svg10.dtd"><svg version="1.0" xmlns="http://www.w3.org/2000/svg" width="640.000000pt" height="1280.000000pt" viewBox="0 0 640.000000 1280.000000" preserveAspectRatio="xMidYMid meet"><metadata>Created by potrace 1.15, written by Peter Selinger 2001-2017</metadata><g transform="translate(0.000000,1280.000000) scale(0.100000,-0.100000)" fill="#000000" stroke="none"><path d="M3599 12778 c-303 -107 -613 -565 -797 -1178 -82 -275 -124 -513
-142 -806 -21 -349 17 -667 219 -1842 l18 -103 -235 -242 c-551 -568 -766
-807 -1003 -1117 -386 -505 -604 -958 -689 -1433 -79 -441 -23 -1008 145
-1471 292 -802 859 -1344 1600 -1531 192 -49 326 -66 560 -72 234 -6 433 10
634 50 75 15 114 20 116 13 9 -28 110 -634 150 -891 111 -721 120 -984 40
-1222 -106 -316 -353 -540 -693 -630 -124 -33 -345 -38 -456 -10 -159 40 -280
127 -337 243 -18 35 -29 67 -26 70 3 3 35 12 72 19 192 41 369 180 455 360 48
102 63 165 63 279 0 269 -161 504 -416 606 -377 151 -792 -59 -916 -462 -59
-193 -66 -458 -17 -603 148 -431 716 -775 1326 -801 592 -26 1041 262 1214
780 67 202 96 460 77 702 -21 270 -106 812 -224 1424 l-44 225 31 14 c281 130
430 227 594 385 63 61 145 152 182 202 433 575 485 1413 130 2072 -72 133
-171 264 -290 383 -205 205 -425 327 -705 390 -127 29 -402 37 -544 15 -57 -9
-105 -15 -107 -13 -2 2 -159 766 -219 1065 l-36 182 123 133 c426 455 682 872
850 1381 156 472 216 921 205 1526 -7 398 -37 654 -112 959 -170 693 -478
1060 -796 949z m378 -1136 c127 -65 199 -241 210 -517 13 -301 -51 -573 -206
-890 -155 -314 -383 -629 -744 -1024 l-132 -145 -12 65 c-20 110 -62 438 -73
564 -11 133 0 379 26 575 68 524 246 966 489 1216 157 160 320 218 442 156z
m-818 -4167 c18 -88 68 -342 112 -564 81 -407 82 -420 46 -421 -5 0 -58 -25
-118 -55 -374 -186 -660 -494 -810 -871 -104 -264 -117 -579 -34 -842 31 -97
107 -248 171 -338 102 -144 286 -315 460 -427 87 -56 298 -167 318 -167 8 0
24 14 36 30 l21 30 -108 108 c-234 231 -366 467 -408 725 -18 109 -19 173 -4
270 41 278 193 516 426 668 64 41 206 109 230 109 5 0 21 -62 35 -137 15 -76
74 -376 132 -668 140 -708 308 -1587 303 -1591 -2 -3 -46 -15 -98 -28 -314
-80 -666 -80 -975 0 -559 144 -979 464 -1208 922 -140 281 -204 611 -193 997
10 356 68 597 212 890 126 258 260 439 525 709 91 93 257 250 369 350 469 416
525 465 527 463 1 -1 16 -74 33 -162z m863 -1734 c266 -69 495 -249 648 -511
122 -209 182 -440 182 -700 -1 -345 -108 -627 -330 -862 -84 -88 -272 -231
-287 -216 -5 5 -22 87 -159 758 -115 564 -314 1518 -322 1544 -6 18 -2 19 92
13 55 -3 134 -15 176 -26z"/></g></svg>